<?xml version="1.0" encoding="iso-8859-1"?>
<!-- Generator: Adobe Illustrator 18.0.0, SVG Export Plug-In . SVG Version: 6.00 Build 0)  -->
<!DOCTYPE svg PUBLIC "-//W3C//DTD SVG 1.1//EN" "http://www.w3.org/Graphics/SVG/1.1/DTD/svg11.dtd">
<svg version="1.1" id="_x31_" xmlns="http://www.w3.org/2000/svg" xmlns:xlink="http://www.w3.org/1999/xlink" x="0px" y="0px"
	 viewBox="0 0 512 512" style="enable-background:new 0 0 512 512;" xml:space="preserve">
<g>
	<rect style="fill:#E17A80;" width="512" height="512"/>
	<path style="opacity:0.1;fill:#040000;" d="M512,207.667V512H194.56L85.248,402.689V167.22h-0.154v-32.973h0.307
		c-0.205-0.82-0.307-1.639-0.307-2.509c0-6.4,5.171-11.571,11.52-11.571h327.885L512,207.667z"/>
	<g>
		<path style="fill:#44494F;" d="M428.911,124.071v274.676H83.251V157.275h-0.162v-30.836h0.323
			c-0.215-0.753-0.323-1.561-0.323-2.368c0-5.974,4.844-10.817,10.817-10.817h324.187
			C424.067,113.254,428.911,118.097,428.911,124.071z"/>
		<rect x="89.35" y="155.588" style="fill:#FFFFFF;" width="333.3" height="235.99"/>
		<rect x="89.35" y="155.588" style="opacity:0.06;fill:#0D0D0D;" width="333.3" height="14.024"/>
		<g>
			<polygon style="fill:#F7BFA1;" points="395.407,191.584 395.407,233.493 367.276,233.493 339.306,259.221 293.446,217.044 
				267.75,240.672 243.755,240.672 243.755,191.584 			"/>
			<polygon style="fill:#F29B84;" points="395.407,233.493 395.407,280.214 243.755,280.214 243.755,240.672 267.75,240.672 
				293.446,217.044 339.306,259.221 367.276,233.493 			"/>
			<polygon style="fill:#F9F8C9;" points="395.407,231.025 395.407,236.41 368.632,236.41 339.364,263.25 293.369,221.073 
				268.81,243.589 243.755,243.589 243.755,238.204 266.374,238.204 293.369,213.464 339.364,255.641 366.196,231.025 			"/>
			<ellipse style="fill:#FEFDF0;" cx="294.113" cy="219.214" rx="5.4" ry="5.273"/>
			<ellipse style="fill:#FEFDF0;" cx="367.276" cy="233.493" rx="5.4" ry="5.273"/>
			<ellipse style="fill:#FEFDF0;" cx="339.248" cy="259.022" rx="5.4" ry="5.273"/>
			<ellipse style="fill:#FEFDF0;" cx="268.322" cy="239.211" rx="5.4" ry="5.273"/>
		</g>
		<g>
			<ellipse style="fill:#8BC66F;" cx="168.069" cy="135.245" rx="8.2" ry="8.729"/>
			<ellipse style="fill:#F4DB6D;" cx="138.238" cy="135.245" rx="8.2" ry="8.729"/>
			<ellipse style="fill:#E06276;" cx="108.408" cy="135.245" rx="8.2" ry="8.729"/>
		</g>
		<g>
			<g>
				<rect x="119.359" y="319.643" style="opacity:0.5;fill:#899C99;" width="51.779" height="43.232"/>
				<g style="opacity:0.5;">
					<rect x="179.363" y="353.902" style="fill:#899C99;" width="34.601" height="5.954"/>
					<rect x="179.363" y="321.399" style="fill:#899C99;" width="71.471" height="6.225"/>
					<rect x="179.363" y="337.583" style="fill:#899C99;" width="71.471" height="6.225"/>
				</g>
			</g>
			<g>
				<rect x="266.651" y="319.643" style="opacity:0.5;fill:#899C99;" width="51.779" height="43.232"/>
				<g style="opacity:0.5;">
					<rect x="326.655" y="353.902" style="fill:#899C99;" width="34.601" height="5.954"/>
					<rect x="326.655" y="321.399" style="fill:#899C99;" width="71.47" height="6.225"/>
					<rect x="326.655" y="337.583" style="fill:#899C99;" width="71.47" height="6.225"/>
				</g>
			</g>
		</g>
		<g>
			<path style="fill:#F29640;" d="M222.361,228.79c-2.249-9.613-6.915-18.5-13.482-25.821c-6.572-7.326-15.05-13.078-24.961-16.38
				c-1.023-0.341-2.058-0.66-3.11-0.948c-9.311-2.546-18.707-2.676-27.54-0.799c-10.447,2.22-20.1,7.262-27.871,14.524
				l43.117,43.559l53.292,14.571C224.464,247.775,224.506,237.957,222.361,228.79z"/>
			<path style="fill:#E8EA76;" d="M221.806,257.495c2.658-9.72,2.699-19.538,0.555-28.705l-53.846,14.135l39.164,39.565
				C214.189,275.688,219.149,267.215,221.806,257.495z"/>
			<path style="fill:#6992A1;" d="M149.952,298.494c-9.216-2.52-17.303-7.119-23.907-13.14c-0.074-0.058-0.139-0.12-0.205-0.183
				c-7.869-7.228-13.613-16.48-16.609-26.688c-2.944-10.044-3.242-21.004-0.278-31.843c2.964-10.84,8.796-20.124,16.441-27.272
				l43.12,43.557l-15.403,56.336C152.058,299.032,151.004,298.781,149.952,298.494z"/>
			<path style="fill:#7BCAD4;" d="M153.111,299.26c10.21,2.2,20.44,1.561,29.822-1.4c0.083-0.03,0.173-0.058,0.256-0.087
				c9.281-2.973,17.723-8.219,24.492-15.285l-38.96-39.358l-0.046-0.162l-0.061,0.058l-0.099-0.102l-0.076,0.279l-42.394,42.151
				c6.604,6.021,14.691,10.62,23.907,13.14C151.004,298.781,152.058,299.032,153.111,299.26z"/>
		</g>
		<g>
			<rect x="373.18" y="286.82" style="fill:#82CCD3;" width="22.227" height="13.72"/>
			<rect x="344.648" y="286.82" style="fill:#E4E78E;" width="22.227" height="13.72"/>
			<rect x="316.116" y="286.82" style="fill:#E5A871;" width="22.227" height="13.72"/>
			<rect x="287.584" y="286.82" style="fill:#6992A1;" width="22.227" height="13.72"/>
		</g>
	</g>
</g>
</svg>
